<svg xmlns="http://www.w3.org/2000/svg" xmlns:xlink="http://www.w3.org/1999/xlink" width="198.488" height="25.588" viewBox="0 0 198.488 25.588">
  <defs>
    <clipPath id="clip-path">
      <rect id="Rectangle_574" data-name="Rectangle 574" width="143.79" height="13.474" transform="translate(0 0)" fill="none"/>
    </clipPath>
  </defs>
  <g id="Group_594" data-name="Group 594" transform="translate(-763.597 -496.001)">
    <g id="Group_578" data-name="Group 578">
      <path id="Path_467" data-name="Path 467" d="M798.022,520.427c-24.728,15.679-50.018,0-50.018,0" transform="translate(153.778 -172.384) rotate(13)" fill="none" stroke="#fff" stroke-width="1"/>
      <g id="Group_577" data-name="Group 577" transform="matrix(0.998, -0.07, 0.07, 0.998, 817.705, 506.031)">
        <g id="Group_576" data-name="Group 576" clip-path="url(#clip-path)">
          <path id="Path_468" data-name="Path 468" d="M3.518,10.1q-.168,0-.264-.21a1.113,1.113,0,0,1-.108-.354Q3.1,8.725,3.08,7.9T3.014,6.265Q2.966,5.2,2.906,4.141t-.12-2.148q-.468.048-.876.108t-.816.084a1.678,1.678,0,0,1-.42-.03,1.7,1.7,0,0,1-.4-.126A.4.4,0,0,1,.05,1.783.711.711,0,0,1,0,1.489q.012-.06.21-.126a1.619,1.619,0,0,1,.306-.078q.384-.024.756-.042t.744-.006a.617.617,0,0,0,.438-.132A.449.449,0,0,0,2.534.673,1.024,1.024,0,0,1,2.54.217q.054-.2.39-.216.54-.024.576.552.036.42.3.492a1.479,1.479,0,0,0,.6.024q.288-.048.558-.114A1.934,1.934,0,0,1,5.51.9a1.237,1.237,0,0,1,.588.2q-.156.108-.27.2a.642.642,0,0,1-.246.132q-.288.084-.618.174a3.442,3.442,0,0,1-.63.114.77.77,0,0,0-.534.15,1,1,0,0,0-.126.618q0,1.776.084,3.546t.12,3.546a.786.786,0,0,1-.1.318.293.293,0,0,1-.264.2" fill="#fff"/>
          <path id="Path_469" data-name="Path 469" d="M10.55,9.385a.486.486,0,0,1-.162.318.474.474,0,0,1-.342.042,1.115,1.115,0,0,1-.492-.2,1.568,1.568,0,0,1-.336-.39l-.384-.606-.408.426q-.156.162-.294.282t-.33.258q-.192.138-.54.354a1.035,1.035,0,0,1-.774.21,1.712,1.712,0,0,1-.666-.366,1.07,1.07,0,0,1-.384-.63,1.291,1.291,0,0,1,.072-.774,3.989,3.989,0,0,1,.516-.9q.312-.408.66-.78.3-.3.594-.6T7.9,5.389a3.186,3.186,0,0,0-.5-.12,2.115,2.115,0,0,0-.348-.018q-.162.006-.39.036t-.624.054a1.15,1.15,0,0,1-.426-.03q-.2-.054-.258-.354a.253.253,0,0,1,.132-.312,1.4,1.4,0,0,1,.5-.174,2.679,2.679,0,0,1,.582-.042q.468.012.948.036a9.277,9.277,0,0,1,.948.1q.492.084.588.354a.726.726,0,0,1-.216.666,8.886,8.886,0,0,1-.684.726q-.372.354-.7.726-.288.324-.558.672t-.534.684a.521.521,0,0,0-.084.2,1.025,1.025,0,0,0-.024.21.477.477,0,0,0,.186.426.361.361,0,0,0,.426-.03,6.535,6.535,0,0,0,.84-.654,3.022,3.022,0,0,0,.624-.8A2.274,2.274,0,0,0,8.582,6.7q0-.648.4-.66.324-.012.408.144a.977.977,0,0,1,.078.468q-.006.312.018.768a4.668,4.668,0,0,0,.132.75,1.717,1.717,0,0,0,.36.678,1.375,1.375,0,0,0,.264.264,3.218,3.218,0,0,1,.312.276" fill="#fff"/>
          <path id="Path_470" data-name="Path 470" d="M16.3,9.649q-.264-.012-.558-.018a3.76,3.76,0,0,1-.57-.054,12.3,12.3,0,0,1-1.29-.306,4.423,4.423,0,0,1-1.3-.666l-.42.72q-.228.156-.342.084a.355.355,0,0,1-.15-.24,1.449,1.449,0,0,1-.036-.3q0-.06.006-.12t.018-.144l.612-5.232q.1-.888.156-1.308T12.77,1.6a.4.4,0,0,1,.312.09.41.41,0,0,1,.144.342,2.612,2.612,0,0,1-.03.336q-.03.216-.084.666t-.144,1.254q-.09.8-.222,2.1-.012.168.054.12a1,1,0,0,0,.18-.2l.246-.336q.132-.18.228-.288.3-.312.588-.57t.612-.558a1.863,1.863,0,0,1,.468-.264,1.388,1.388,0,0,1,.516-.132.707.707,0,0,1,.564.252.783.783,0,0,1,.168.636,2.672,2.672,0,0,1-.528,1.308,7.776,7.776,0,0,1-.858.948,6.008,6.008,0,0,1-1.026.768,1.3,1.3,0,0,1-.186.084.52.52,0,0,0-.186.108,1.155,1.155,0,0,0,.348.192q.18.06.324.1l.648.108q.36.06.7.114t.576.1a1.518,1.518,0,0,1,.282.066.376.376,0,0,1,.246.264.359.359,0,0,1-.414.456m-3.444-1.92a2.914,2.914,0,0,0,.924-.4,4.326,4.326,0,0,0,.816-.678,4.105,4.105,0,0,0,.576-.762,1.373,1.373,0,0,0,.216-.654.57.57,0,0,0-.012-.132,7.261,7.261,0,0,0-.792.522,7.161,7.161,0,0,0-.768.666,5.362,5.362,0,0,0-.618.732,2.179,2.179,0,0,0-.342.708" fill="#fff"/>
          <path id="Path_471" data-name="Path 471" d="M20.234,9.685a7.243,7.243,0,0,1-.774-.036,1.918,1.918,0,0,1-.762-.3,3.03,3.03,0,0,1-.786-.75,2.235,2.235,0,0,1-.426-.978q-.012-.516.006-.84a1.979,1.979,0,0,1,.108-.57,2.37,2.37,0,0,1,.258-.5,3.963,3.963,0,0,1,1.062-1.23A2.235,2.235,0,0,1,20.294,4a.785.785,0,0,1,.4.1.857.857,0,0,1,.7.468.942.942,0,0,1,0,.8,2.33,2.33,0,0,1-.63.78,5.724,5.724,0,0,1-.99.624l-1.416.72a1.431,1.431,0,0,0,.7,1.092,2.543,2.543,0,0,0,1.6.3,5.514,5.514,0,0,0,.8-.12,1.437,1.437,0,0,1,.576-.042q.216.042.216.39,0,.156-.228.264a2.615,2.615,0,0,1-.558.18,5.356,5.356,0,0,1-.666.1q-.336.03-.552.03m-1.92-3.036a6.393,6.393,0,0,0,1.392-.654,2.16,2.16,0,0,0,.876-1.086q-.12-.012-.222-.018t-.2-.006q-1.116,0-1.848,1.764" fill="#fff"/>
          <path id="Path_472" data-name="Path 472" d="M28.682,9.565a6.482,6.482,0,0,1-.84.018,5.241,5.241,0,0,1-.84-.1.573.573,0,0,1-.492-.36.8.8,0,0,1,.144-.648,3.427,3.427,0,0,0,1.3.384,4.439,4.439,0,0,0,1.278-.09,12.76,12.76,0,0,0,1.26-.342.566.566,0,0,0,.264-.186.354.354,0,0,0,.12-.246.544.544,0,0,0-.132-.282.706.706,0,0,0-.252-.21q-.7-.384-1.428-.708a9.054,9.054,0,0,1-1.392-.768A2.794,2.794,0,0,1,26.606,4.8a1.7,1.7,0,0,1,.132-1.518,1.991,1.991,0,0,1,.138-.234.6.6,0,0,1,.174-.174,7.772,7.772,0,0,1,1.284-.606,4.24,4.24,0,0,1,1.338-.252,3.414,3.414,0,0,1,1.41.282,1.025,1.025,0,0,1,.594.51.922.922,0,0,1,.03.75.419.419,0,0,1-.114.174.406.406,0,0,1-.186.114q-.048.012-.162-.078t-.114-.15q.012-.372-.222-.48a2.122,2.122,0,0,0-.474-.156,4.188,4.188,0,0,0-1.32-.03,3.513,3.513,0,0,0-1.26.438,1.277,1.277,0,0,0-.612.654,1.031,1.031,0,0,0,.024.786A1.457,1.457,0,0,0,27.9,5.5a11.622,11.622,0,0,0,1.242.624q.642.276,1.254.6a5.289,5.289,0,0,1,.564.354,2.181,2.181,0,0,1,.468.45,1.063,1.063,0,0,1,.276.96A.959.959,0,0,1,31,9.157a8.14,8.14,0,0,1-1.14.258q-.588.09-1.176.15" fill="#fff"/>
          <path id="Path_473" data-name="Path 473" d="M36.025,9.685a7.243,7.243,0,0,1-.774-.036,1.918,1.918,0,0,1-.762-.3A3.03,3.03,0,0,1,33.7,8.6a2.235,2.235,0,0,1-.426-.978q-.012-.516.006-.84a1.979,1.979,0,0,1,.108-.57,2.37,2.37,0,0,1,.258-.5,3.963,3.963,0,0,1,1.062-1.23A2.235,2.235,0,0,1,36.085,4a.785.785,0,0,1,.4.1.857.857,0,0,1,.7.468.942.942,0,0,1,0,.8,2.33,2.33,0,0,1-.63.78,5.724,5.724,0,0,1-.99.624l-1.416.72a1.431,1.431,0,0,0,.7,1.092,2.543,2.543,0,0,0,1.6.3,5.514,5.514,0,0,0,.8-.12,1.437,1.437,0,0,1,.576-.042q.216.042.216.39,0,.156-.228.264a2.615,2.615,0,0,1-.558.18,5.356,5.356,0,0,1-.666.1q-.336.03-.552.03M34.1,6.649A6.393,6.393,0,0,0,35.5,5.995a2.16,2.16,0,0,0,.876-1.086q-.12-.012-.222-.018t-.2-.006q-1.116,0-1.848,1.764" fill="#fff"/>
          <path id="Path_474" data-name="Path 474" d="M40.322,9.793a.486.486,0,0,1-.372-.282,1.543,1.543,0,0,1-.18-.45q-.084-.552-.132-1.116T39.53,6.829q-.084-1.176-.18-2.34t-.192-2.316a1.577,1.577,0,0,0-.174-.588.855.855,0,0,1-.114-.48A.435.435,0,0,1,39,.757.454.454,0,0,1,39.3.649a.619.619,0,0,1,.324.126.523.523,0,0,1,.2.282q.084.324.144.678t.108.7l.072,2.22q.048.78.108,1.554t.108,1.542q.024.372.036.738a1.5,1.5,0,0,0,.2.7.358.358,0,0,1,.024.288,2.109,2.109,0,0,1-.132.2.231.231,0,0,1-.18.114" fill="#fff"/>
          <path id="Path_475" data-name="Path 475" d="M44.017,11.485c-.1.08-.186.088-.246.023a.526.526,0,0,1-.12-.281,2.17,2.17,0,0,1-.03-.342,1.068,1.068,0,0,1,.048-.3,1.373,1.373,0,0,0,.048-.389,3.821,3.821,0,0,0-.03-.426,1.746,1.746,0,0,0-.09-.414,5.062,5.062,0,0,1-.15-.642q-.078-.426-.156-.924t-.156-.942a5.091,5.091,0,0,0-.162-.7q-.228.084-.438.156t-.414.132a.363.363,0,0,1-.348-.03.56.56,0,0,1-.2-.33.269.269,0,0,1,.174-.378q.258-.09.738-.246a.517.517,0,0,0,.27-.174.617.617,0,0,0,.042-.366q-.024-.24-.036-.612t-.012-.6q0-.408.024-.66t.072-.66a2.075,2.075,0,0,1,.306-.936,3.09,3.09,0,0,1,.63-.72A.875.875,0,0,1,44.9.673a1.151,1.151,0,0,1,.624.984.966.966,0,0,1-.024.264q-.024.072-.132.072a.217.217,0,0,1-.174-.078l-.138-.162q-.324-.372-.54-.372a.679.679,0,0,0-.4.174,1.728,1.728,0,0,0-.39.438,1.181,1.181,0,0,0-.192.528q-.048.624-.036,1.338A11.5,11.5,0,0,0,43.6,5.2q.012.072.066.066t.27-.06q.216-.054.7-.126t1.35-.12a1.157,1.157,0,0,1,.18.492q0,.216-.444.324-.3.06-.618.1t-.63.084l-.744.12a4.58,4.58,0,0,1,.1.534q.054.366.1.792t.1.78q.048.354.084.5l.192.714a3.279,3.279,0,0,1,.12.714,3.19,3.19,0,0,1-.048.816.962.962,0,0,1-.36.564" fill="#fff"/>
          <path id="Path_476" data-name="Path 476" d="M49.969,7.345a9.39,9.39,0,0,1-1-.03q-.516-.042-1.008-.09-.228-.024-.42-.03a.465.465,0,0,1-.306-.108.5.5,0,0,1-.114-.378q.036-.084.234-.144a1.207,1.207,0,0,1,.342-.06h1.434q.762,0,1.422.048a1.157,1.157,0,0,1,.432.114.628.628,0,0,1,.3.258q.084.156-.108.312a1.018,1.018,0,0,0-.48.024,4.267,4.267,0,0,1-.732.084" fill="#fff"/>
          <path id="Path_477" data-name="Path 477" d="M58.645,9.853q-.42-.036-.516-.6-.084-.492-.2-.984t-.252-.984a3.893,3.893,0,0,1-.1-.4,1.45,1.45,0,0,0-.132-.39,8.888,8.888,0,0,0-1.692.426q-.864.306-1.668.522a5.168,5.168,0,0,1-.312.714,4.1,4.1,0,0,0-.3.726,1.1,1.1,0,0,1-.264.5.567.567,0,0,1-.456.072,1.123,1.123,0,0,1-.264-.078,2.3,2.3,0,0,1-.228-.138l.372-.744q.276-.66.54-1.26t.492-1.2q.312-.816.6-1.656t.588-1.68q.06-.144.114-.3a2.494,2.494,0,0,1,.126-.3q.168-.348.378-.4t.486.228a3.336,3.336,0,0,1,.588.816q.264.492.5,1t.5,1.008a3.845,3.845,0,0,0,.2.36.566.566,0,0,0,.372.228.437.437,0,0,1,.33.246.463.463,0,0,1-.066.426.565.565,0,0,0-.114.378,3.665,3.665,0,0,0,.054.366q.12.468.246.918t.222.906a3.1,3.1,0,0,1,.1.636.881.881,0,0,1-.258.636m-4.284-3.24q.36-.132.852-.318l.99-.372.858-.318a12.711,12.711,0,0,0-.546-1.326,5.885,5.885,0,0,0-.774-1.218q-.192.348-.432.84t-.456,1.02q-.216.528-.354.978a2.6,2.6,0,0,0-.138.714" fill="#fff"/>
          <path id="Path_478" data-name="Path 478" d="M61.045,10.069l-.276.024q-.144.012-.288.012a.823.823,0,0,1-.408-.156.279.279,0,0,1-.132-.312.306.306,0,0,1,.144-.144.324.324,0,0,1,.2-.06,4.035,4.035,0,0,0,.906-.006,7.621,7.621,0,0,0,.894-.162q.3-.072.6-.174a3.585,3.585,0,0,0,.564-.246q.78-.408.084-1.008-.24-.2-.486-.4t-.486-.384a2.66,2.66,0,0,1-.654-.708,3.316,3.316,0,0,1-.378-.876,1.01,1.01,0,0,1,.036-.63,1.086,1.086,0,0,1,.384-.522,2.084,2.084,0,0,1,1.26-.48,1.913,1.913,0,0,1,1.248.456,1.036,1.036,0,0,1,.282.306q.114.186.222.366a.25.25,0,0,1-.048.276q-.108.12-.312-.012a2,2,0,0,1-.27-.216,1.452,1.452,0,0,0-.27-.2,1.143,1.143,0,0,0-.606-.168,1.483,1.483,0,0,0-.612.126,1.038,1.038,0,0,0-.45.378.972.972,0,0,0-.114.282.5.5,0,0,0,.042.306,2.984,2.984,0,0,0,.39.678,1.768,1.768,0,0,0,.39.354q.2.132.456.306a3.841,3.841,0,0,1,.588.534,1.409,1.409,0,0,1,.336.57,1.165,1.165,0,0,1,.018.63.907.907,0,0,1-.39.528,3.113,3.113,0,0,1-1.02.474q-.54.138-1.1.234a1.52,1.52,0,0,1-.318.036q-.15,0-.426-.012" fill="#fff"/>
          <path id="Path_479" data-name="Path 479" d="M65.8,10.069l-.276.024q-.144.012-.288.012a.823.823,0,0,1-.408-.156.279.279,0,0,1-.132-.312.306.306,0,0,1,.144-.144.324.324,0,0,1,.2-.06,4.035,4.035,0,0,0,.906-.006,7.622,7.622,0,0,0,.894-.162q.3-.072.6-.174A3.585,3.585,0,0,0,68,8.845q.78-.408.084-1.008-.24-.2-.486-.4t-.486-.384a2.66,2.66,0,0,1-.654-.708,3.316,3.316,0,0,1-.378-.876,1.01,1.01,0,0,1,.036-.63,1.086,1.086,0,0,1,.384-.522,2.084,2.084,0,0,1,1.26-.48,1.913,1.913,0,0,1,1.248.456,1.036,1.036,0,0,1,.282.306q.114.186.222.366a.25.25,0,0,1-.048.276q-.108.12-.312-.012a2,2,0,0,1-.27-.216,1.452,1.452,0,0,0-.27-.2,1.143,1.143,0,0,0-.606-.168,1.483,1.483,0,0,0-.612.126,1.038,1.038,0,0,0-.45.378.972.972,0,0,0-.114.282.5.5,0,0,0,.042.306,2.984,2.984,0,0,0,.39.678,1.768,1.768,0,0,0,.39.354q.2.132.456.306a3.84,3.84,0,0,1,.588.534,1.409,1.409,0,0,1,.336.57,1.165,1.165,0,0,1,.018.63.907.907,0,0,1-.39.528,3.113,3.113,0,0,1-1.02.474q-.54.138-1.1.234a1.52,1.52,0,0,1-.318.036q-.15,0-.426-.012" fill="#fff"/>
          <path id="Path_480" data-name="Path 480" d="M73.321,9.685a7.243,7.243,0,0,1-.774-.036,1.918,1.918,0,0,1-.762-.3A3.029,3.029,0,0,1,71,8.6a2.235,2.235,0,0,1-.426-.978q-.012-.516.006-.84a1.979,1.979,0,0,1,.108-.57,2.371,2.371,0,0,1,.258-.5,3.963,3.963,0,0,1,1.062-1.23A2.235,2.235,0,0,1,73.381,4a.785.785,0,0,1,.4.1.857.857,0,0,1,.7.468.942.942,0,0,1,0,.8,2.33,2.33,0,0,1-.63.78,5.724,5.724,0,0,1-.99.624l-1.416.72a1.431,1.431,0,0,0,.7,1.092,2.543,2.543,0,0,0,1.6.3,5.513,5.513,0,0,0,.8-.12,1.437,1.437,0,0,1,.576-.042q.216.042.216.39,0,.156-.228.264a2.615,2.615,0,0,1-.558.18,5.356,5.356,0,0,1-.666.1q-.336.03-.552.03M71.4,6.649a6.393,6.393,0,0,0,1.392-.654,2.16,2.16,0,0,0,.876-1.086q-.12-.012-.222-.018t-.2-.006q-1.116,0-1.848,1.764" fill="#fff"/>
          <path id="Path_481" data-name="Path 481" d="M76.98,10.069l-.276.024q-.144.012-.288.012a.823.823,0,0,1-.408-.156.279.279,0,0,1-.132-.312.306.306,0,0,1,.144-.144.324.324,0,0,1,.2-.06,4.035,4.035,0,0,0,.906-.006,7.622,7.622,0,0,0,.894-.162q.3-.072.6-.174a3.586,3.586,0,0,0,.564-.246q.78-.408.084-1.008-.24-.2-.486-.4T78.3,7.057a2.659,2.659,0,0,1-.654-.708,3.316,3.316,0,0,1-.378-.876,1.01,1.01,0,0,1,.036-.63,1.086,1.086,0,0,1,.384-.522,2.084,2.084,0,0,1,1.26-.48A1.913,1.913,0,0,1,80.2,4.3a1.036,1.036,0,0,1,.282.306q.114.186.222.366a.25.25,0,0,1-.048.276q-.108.12-.312-.012a2,2,0,0,1-.27-.216,1.452,1.452,0,0,0-.27-.2,1.143,1.143,0,0,0-.606-.168,1.483,1.483,0,0,0-.612.126,1.038,1.038,0,0,0-.45.378.972.972,0,0,0-.114.282.5.5,0,0,0,.042.306,2.984,2.984,0,0,0,.39.678,1.768,1.768,0,0,0,.39.354q.2.132.456.306a3.84,3.84,0,0,1,.588.534,1.409,1.409,0,0,1,.336.57,1.165,1.165,0,0,1,.018.63.907.907,0,0,1-.39.528,3.113,3.113,0,0,1-1.02.474q-.54.138-1.1.234a1.52,1.52,0,0,1-.318.036q-.15,0-.426-.012" fill="#fff"/>
          <path id="Path_482" data-name="Path 482" d="M81.732,10.069l-.276.024q-.144.012-.288.012a.823.823,0,0,1-.408-.156.279.279,0,0,1-.132-.312.306.306,0,0,1,.144-.144.324.324,0,0,1,.2-.06,4.035,4.035,0,0,0,.906-.006,7.621,7.621,0,0,0,.894-.162q.3-.072.6-.174a3.586,3.586,0,0,0,.564-.246q.78-.408.084-1.008-.24-.2-.486-.4t-.486-.384a2.659,2.659,0,0,1-.654-.708,3.316,3.316,0,0,1-.378-.876,1.01,1.01,0,0,1,.036-.63,1.086,1.086,0,0,1,.384-.522,2.084,2.084,0,0,1,1.26-.48,1.913,1.913,0,0,1,1.248.456,1.036,1.036,0,0,1,.282.306q.114.186.222.366a.25.25,0,0,1-.048.276q-.108.12-.312-.012a2,2,0,0,1-.27-.216,1.452,1.452,0,0,0-.27-.2,1.143,1.143,0,0,0-.606-.168,1.483,1.483,0,0,0-.612.126,1.038,1.038,0,0,0-.45.378.972.972,0,0,0-.114.282.5.5,0,0,0,.042.306,2.984,2.984,0,0,0,.39.678,1.768,1.768,0,0,0,.39.354q.2.132.456.306a3.84,3.84,0,0,1,.588.534,1.409,1.409,0,0,1,.336.57,1.165,1.165,0,0,1,.018.63.907.907,0,0,1-.39.528,3.113,3.113,0,0,1-1.02.474q-.54.138-1.1.234a1.52,1.52,0,0,1-.318.036q-.15,0-.426-.012" fill="#fff"/>
          <path id="Path_483" data-name="Path 483" d="M87.1,9.745a.658.658,0,0,1-.366-.24.887.887,0,0,1-.174-.408q-.06-.42-.1-.84c-.028-.28-.05-.555-.066-.828q-.036-.636-.042-1.272t-.03-1.26a2.938,2.938,0,0,1,.018-.336c.012-.1.09-.171.234-.2a.4.4,0,0,1,.348.078.478.478,0,0,1,.156.318c.056.345.094.624.114.84a5.366,5.366,0,0,1,.024.606q-.006.282-.012.648t.006.966q.048.432.066.582t.03.15q.084-.132.246-.366a2.224,2.224,0,0,0,.222-.378c.16-.327.316-.656.468-.984s.308-.652.468-.972q.1-.168.2-.336a2.268,2.268,0,0,1,.228-.3.7.7,0,0,1,1.26.228,2.811,2.811,0,0,1,.114.408q.054.252.1.528t.09.492q.042.216.054.288.036.156.09.324t.138.42q.1-.2.246-.528t.306-.684q.156-.36.288-.66c.088-.2.152-.352.192-.456s.044-.128.012-.072a1.513,1.513,0,0,1,.354-.456.792.792,0,0,1,.534-.18.59.59,0,0,1,.522.234,1.864,1.864,0,0,1,.246.5q.2.588.372,1.176c.112.393.232.788.36,1.188q.036.18.084.348t.1.36a2.761,2.761,0,0,1,.066.4.223.223,0,0,1-.072.192,1.642,1.642,0,0,1-.294.174.244.244,0,0,1-.192-.09.6.6,0,0,1-.144-.186q-.192-.54-.378-1.086t-.39-1.062q-.072-.228-.168-.456t-.2-.492a1.06,1.06,0,0,0-.282.408c-.052.144-.1.293-.15.444a6.625,6.625,0,0,1-.414,1.026,6.028,6.028,0,0,1-.594.942c-.216.281-.42.412-.612.4s-.364-.184-.516-.5a2.392,2.392,0,0,1-.162-.5q-.054-.264-.126-.528-.072-.408-.1-.606t-.048-.306a1.435,1.435,0,0,0-.09-.258q-.066-.15-.21-.45-.228.456-.45.912t-.462.912q-.192.36-.4.708t-.426.7a1.187,1.187,0,0,1-.27.312.482.482,0,0,1-.414.084" fill="#fff"/>
          <path id="Path_484" data-name="Path 484" d="M98.809,9.685a7.243,7.243,0,0,1-.774-.036,1.918,1.918,0,0,1-.762-.3,3.029,3.029,0,0,1-.786-.75,2.235,2.235,0,0,1-.426-.978q-.012-.516.006-.84a1.978,1.978,0,0,1,.108-.57,2.37,2.37,0,0,1,.258-.5A3.963,3.963,0,0,1,97.5,4.483,2.235,2.235,0,0,1,98.869,4a.785.785,0,0,1,.4.1.857.857,0,0,1,.7.468.942.942,0,0,1,0,.8,2.33,2.33,0,0,1-.63.78,5.724,5.724,0,0,1-.99.624l-1.416.72a1.431,1.431,0,0,0,.7,1.092,2.543,2.543,0,0,0,1.6.3,5.514,5.514,0,0,0,.8-.12,1.437,1.437,0,0,1,.576-.042q.216.042.216.39,0,.156-.228.264a2.615,2.615,0,0,1-.558.18,5.356,5.356,0,0,1-.666.1q-.336.03-.552.03m-1.92-3.036a6.393,6.393,0,0,0,1.392-.654,2.16,2.16,0,0,0,.876-1.086q-.12-.012-.222-.018t-.2-.006q-1.116,0-1.848,1.764" fill="#fff"/>
          <path id="Path_485" data-name="Path 485" d="M106.309,10.2a.216.216,0,0,1-.246-.1.98.98,0,0,1-.138-.33c-.033-.132-.06-.258-.084-.378q-.132-.564-.27-1.116t-.282-1.1q-.132-.564-.3-.666a.253.253,0,0,0-.336.066,2.025,2.025,0,0,0-.324.444,4.565,4.565,0,0,0-.288.654,6.477,6.477,0,0,1-.276.666q-.108.24-.228.474a4.57,4.57,0,0,1-.264.45.594.594,0,0,1-.228.24.521.521,0,0,1-.336.06.478.478,0,0,1-.342-.168,1.012,1.012,0,0,1-.174-.336q-.048-.192-.084-.384t-.06-.372q-.084-.552-.144-1.092t-.132-1.092a.578.578,0,0,1,.048-.294.332.332,0,0,1,.216-.174.134.134,0,0,1,.06-.012h.048a.485.485,0,0,1,.306.108.422.422,0,0,1,.162.288,5.949,5.949,0,0,1,.084.66q.024.336.06.66.036.24.132.7a2.158,2.158,0,0,0,.186-.276q.066-.12.1-.192.132-.264.246-.528a3.969,3.969,0,0,1,.27-.516,4.709,4.709,0,0,1,.276-.384,2.068,2.068,0,0,1,.324-.324.99.99,0,0,1,.6-.228.91.91,0,0,1,.744.42,1.313,1.313,0,0,1,.216.318q.084.174.156.342a10.06,10.06,0,0,1,.39,1.446c.092.485.162.978.21,1.482a.752.752,0,0,1-.054.408.311.311,0,0,1-.246.18" fill="#fff"/>
          <path id="Path_486" data-name="Path 486" d="M112.392,9.913a2.569,2.569,0,0,1-1.824-.648,4.57,4.57,0,0,1-1.248-2.016,8.167,8.167,0,0,1-.21-.876,7.074,7.074,0,0,1-.1-.876l-.036-.852a.967.967,0,0,0-.318-.108,2.168,2.168,0,0,0-.318-.024,2.7,2.7,0,0,0-.576.06,2.592,2.592,0,0,1-.552.06.544.544,0,0,1-.372-.108.251.251,0,0,1-.1-.24.288.288,0,0,1,.2-.2,2.454,2.454,0,0,1,.354-.12l.378-.1a2.918,2.918,0,0,1,.66-.1,1.331,1.331,0,0,0,.576-.132.354.354,0,0,0,.168-.258,1.251,1.251,0,0,1,.024-.246,4.8,4.8,0,0,0,.168-.936,2.549,2.549,0,0,1,.24-.9.459.459,0,0,1,.324-.156.387.387,0,0,1,.294.138.488.488,0,0,1,.126.342l-.1.612-.078.468a2.294,2.294,0,0,0-.036.276.964.964,0,0,0,.006.24q.018.12.03.252t.138.138l.222.03q.18.012.36.006t.348-.006q.372,0,.756.006a2.213,2.213,0,0,1,.642.09.3.3,0,0,1,.234.336.222.222,0,0,1-.18.252,1.4,1.4,0,0,1-.45,0,4.219,4.219,0,0,0-.558-.036,3.826,3.826,0,0,0-.576.042q-.276.042-.828.15a.6.6,0,0,0-.312.528,3.12,3.12,0,0,0,.024.852,7.461,7.461,0,0,0,.6,2,3.462,3.462,0,0,0,.468.762,6.2,6.2,0,0,0,.744.516,1.183,1.183,0,0,0,.576.144,1.71,1.71,0,0,0,.48-.06,2.123,2.123,0,0,1,.378-.078.43.43,0,0,1,.33.114.226.226,0,0,1,.042.33.648.648,0,0,1-.294.222,3.413,3.413,0,0,1-.828.108" fill="#fff"/>
          <path id="Path_487" data-name="Path 487" d="M120.936,10.1q-.168,0-.264-.21a1.113,1.113,0,0,1-.108-.354q-.048-.816-.066-1.638t-.066-1.638q-.048-1.068-.108-2.124t-.12-2.148q-.468.048-.876.108t-.816.084a1.678,1.678,0,0,1-.42-.03,1.7,1.7,0,0,1-.4-.126.4.4,0,0,1-.228-.246.711.711,0,0,1-.048-.294q.012-.06.21-.126a1.619,1.619,0,0,1,.306-.078q.384-.024.756-.042t.744-.006a.617.617,0,0,0,.438-.132.449.449,0,0,0,.078-.432,1.023,1.023,0,0,1,.006-.456q.054-.2.39-.216.54-.024.576.552.036.42.3.492a1.479,1.479,0,0,0,.6.024q.288-.048.558-.114A1.934,1.934,0,0,1,122.928.9a1.237,1.237,0,0,1,.588.2q-.156.108-.27.2a.642.642,0,0,1-.246.132q-.288.084-.618.174a3.442,3.442,0,0,1-.63.114.77.77,0,0,0-.534.15,1,1,0,0,0-.126.618q0,1.776.084,3.546t.12,3.546a.786.786,0,0,1-.1.318.293.293,0,0,1-.264.2" fill="#fff"/>
          <path id="Path_488" data-name="Path 488" d="M125.2,9.481a1.936,1.936,0,0,1-.666-.12A1.358,1.358,0,0,1,124,9.025q-.264-.336-.42-.57a1.752,1.752,0,0,1-.228-.48,2.239,2.239,0,0,1-.072-.618,2.848,2.848,0,0,1,.468-1.344,5.87,5.87,0,0,1,.924-1.068.746.746,0,0,1,.5-.222,1.116,1.116,0,0,1,.534.09,4.009,4.009,0,0,1,.912.468,1.873,1.873,0,0,1,.546.606,2.66,2.66,0,0,1,.282.882,3.958,3.958,0,0,1-.546,1.524,3.084,3.084,0,0,1-1.158,1.068,1.059,1.059,0,0,1-.54.12m-.372-.828a1.667,1.667,0,0,0,.348.06.681.681,0,0,0,.336-.06,4.6,4.6,0,0,0,.5-.372,1.46,1.46,0,0,0,.318-.4,2.314,2.314,0,0,0,.21-.588,2.062,2.062,0,0,0,.018-.234q.006-.162.006-.33a.713.713,0,0,0-.024-.228,1.756,1.756,0,0,0-.45-.636,1.374,1.374,0,0,0-.612-.336.609.609,0,0,0-.558.132,1.3,1.3,0,0,0-.39.42,1.854,1.854,0,0,0-.168.45,2.768,2.768,0,0,1-.186.522,2.5,2.5,0,0,0-.006.576,1.468,1.468,0,0,0,.186.588,1.069,1.069,0,0,0,.468.432" fill="#fff"/>
          <path id="Path_489" data-name="Path 489" d="M132.42,9.589a.293.293,0,0,1-.288-.2,3.809,3.809,0,0,1-.2-.648,2.248,2.248,0,0,1-.036-.522q.012-.27.012-.714-.036-.132-.12-.012a2.12,2.12,0,0,0-.186.354q-.1.234-.2.426a3.49,3.49,0,0,1-.366.564,1.63,1.63,0,0,1-.534.432,1.2,1.2,0,0,1-.72.144,1.011,1.011,0,0,1-.624-.36,2.936,2.936,0,0,1-.618-1.014,2.413,2.413,0,0,1-.114-1.158q.048-.3.09-.6a3.771,3.771,0,0,1,.126-.576,2.362,2.362,0,0,1,.912-1.188,2.472,2.472,0,0,1,1.428-.444q-.048,0,.1.006t.33.018q.186.012.234.012.108-1.008.15-1.6t.084-.882a.668.668,0,0,1,.132-.372.383.383,0,0,1,.27-.084q.2,0,.258.114a1.656,1.656,0,0,1,.1.378,8.786,8.786,0,0,1,.054,1.92q-.078.972-.138,2.064a8.992,8.992,0,0,0,.036,1.392,8.092,8.092,0,0,1,.024,1.392.876.876,0,0,0,.1.444.9.9,0,0,1,.108.4.259.259,0,0,1-.15.246.569.569,0,0,1-.246.078m-2.376-.84a.513.513,0,0,0,.342-.246,3.24,3.24,0,0,0,.342-.612q.168-.378.336-.834t.336-.9a2.164,2.164,0,0,0,.138-.846.509.509,0,0,0-.306-.462,1.375,1.375,0,0,0-.876.06,1.39,1.39,0,0,0-.762.588,1.92,1.92,0,0,0-.318,1q-.012.264-.018.606a4.257,4.257,0,0,0,.018.546q.036.228.072.486a.852.852,0,0,0,.186.438.631.631,0,0,0,.51.18" fill="#fff"/>
          <path id="Path_490" data-name="Path 490" d="M138.708,9.385a.486.486,0,0,1-.162.318.474.474,0,0,1-.342.042,1.115,1.115,0,0,1-.492-.2,1.568,1.568,0,0,1-.336-.39l-.384-.606-.408.426q-.156.162-.294.282t-.33.258q-.192.138-.54.354a1.035,1.035,0,0,1-.774.21,1.712,1.712,0,0,1-.666-.366,1.07,1.07,0,0,1-.384-.63,1.291,1.291,0,0,1,.072-.774,3.989,3.989,0,0,1,.516-.9q.312-.408.66-.78.3-.3.594-.6t.618-.636a3.186,3.186,0,0,0-.5-.12,2.115,2.115,0,0,0-.348-.018q-.162.006-.39.036t-.624.054a1.15,1.15,0,0,1-.426-.03q-.2-.054-.258-.354a.253.253,0,0,1,.132-.312,1.4,1.4,0,0,1,.5-.174,2.679,2.679,0,0,1,.582-.042q.468.012.948.036a9.277,9.277,0,0,1,.948.1q.492.084.588.354a.726.726,0,0,1-.216.666,8.888,8.888,0,0,1-.684.726q-.372.354-.7.726-.288.324-.558.672t-.534.684a.52.52,0,0,0-.084.2,1.024,1.024,0,0,0-.024.21.477.477,0,0,0,.186.426.361.361,0,0,0,.426-.03,6.535,6.535,0,0,0,.84-.654,3.022,3.022,0,0,0,.624-.8A2.274,2.274,0,0,0,136.74,6.7q0-.648.4-.66.324-.012.408.144a.977.977,0,0,1,.078.468q-.006.312.018.768a4.668,4.668,0,0,0,.132.75,1.717,1.717,0,0,0,.36.678,1.375,1.375,0,0,0,.264.264,3.217,3.217,0,0,1,.312.276" fill="#fff"/>
          <path id="Path_491" data-name="Path 491" d="M141.528,13.465a.409.409,0,0,1-.186-.289.63.63,0,0,1-.006-.311q.1-.348.162-.714t.126-.727q.108-.648.2-1.109c.064-.308.128-.615.192-.918s.136-.672.216-1.1l.132-.553a3.291,3.291,0,0,0,.084-.659,2.483,2.483,0,0,1-1.05-.3,3.057,3.057,0,0,1-.768-.624q-.33-.371-.642-.768c-.064-.088-.126-.179-.186-.276a1.522,1.522,0,0,0-.21-.264,1.389,1.389,0,0,0-.234-.227q-.126-.1-.222-.18a.558.558,0,0,1-.12-.462.642.642,0,0,1,.276-.33.515.515,0,0,1,.54.18q.132.168.264.354a2.585,2.585,0,0,1,.228.389,3.821,3.821,0,0,0,.426.672,6.549,6.549,0,0,0,.522.589,2.1,2.1,0,0,0,.756.48.485.485,0,0,0,.336-.091.857.857,0,0,0,.216-.245,1.735,1.735,0,0,0,.174-.354,2.5,2.5,0,0,0,.1-.379q.036-.252.09-.5c.036-.168.074-.331.114-.491s.122-.241.246-.241a.577.577,0,0,1,.39.2,3.987,3.987,0,0,1,.09.8,2.632,2.632,0,0,1-.126.834q-.372,1.214-.642,2.454t-.57,2.479c-.056.239-.094.422-.114.545s-.036.248-.048.373-.038.309-.078.557c-.024.152-.048.3-.072.445s-.056.291-.1.444a.389.389,0,0,1-.186.252.423.423,0,0,1-.33.072" fill="#fff"/>
        </g>
      </g>
    </g>
  </g>
</svg>
