<?xml version="1.0" encoding="utf-8"?>
<!-- Generator: Adobe Illustrator 27.3.1, SVG Export Plug-In . SVG Version: 6.00 Build 0)  -->
<svg version="1.1" id="Layer_1" xmlns="http://www.w3.org/2000/svg" xmlns:xlink="http://www.w3.org/1999/xlink" x="0px" y="0px"
	 viewBox="0 0 150 129.8" style="enable-background:new 0 0 150 129.8;" xml:space="preserve">
<style type="text/css">
	.st0{fill:#333333;}
	.st1{fill:#9DA5D3;}
</style>
<g id="TrafficGuard_Bot_v2" transform="translate(99 364.218)">
	<path id="Path_496" class="st0" d="M-60.4-258.6h-15.5v22.7h23.1v-15.5h21.9v-14.3h14.1v14.9H5.5v14.9h23.6v-22.3H12.9v-7.5h21.5
		V-279h7.9v-8.7h7V-331H35.7v-15.3h-7.9v-16H5.9v8.9H-16v14.6h-14.6v-15.1h-21.9v-7.9h-23.3v15.1h-6.2v15.7h-15.1v44.7h7.4v6.6h8.3
		v13.8h21L-60.4-258.6z"/>
	<g id="Group_586" transform="translate(2.447 23.194)">
		<rect id="Rectangle_595" x="-70.9" y="-273.9" class="st1" width="9.8" height="8.5"/>
		<rect id="Rectangle_596" x="-70.9" y="-378.9" class="st1" width="9.8" height="8.5"/>
		<path id="Path_497" class="st1" d="M-78.4-348.5h9.1v-6.7h7.2v-10.1h-16.3V-348.5z"/>
		<rect id="Rectangle_597" x="-92.9" y="-349.4" class="st1" width="8.6" height="30.8"/>
		<rect id="Rectangle_598" x="-84.2" y="-318.6" class="st1" width="14" height="7.1"/>
	</g>
	<g id="Group_587" transform="translate(39.247 23.194)">
		<rect id="Rectangle_599" x="-28.5" y="-273.9" class="st1" width="9.8" height="8.5"/>
		<rect id="Rectangle_600" x="-28.5" y="-378.9" class="st1" width="9.8" height="8.5"/>
		<path id="Path_498" class="st1" d="M-11.2-348.5h-9.1v-6.7h-7.2v-10.1h16.3V-348.5z"/>
		<rect id="Rectangle_601" x="-5.4" y="-349.4" class="st1" width="8.6" height="30.8"/>
		<rect id="Rectangle_602" x="-19.3" y="-318.6" class="st1" width="14" height="7.1"/>
	</g>
	<rect id="Rectangle_603" x="-67.8" y="-318.7" class="st1" width="88.2" height="45.4"/>
	<rect id="Rectangle_604" x="-53.1" y="-274.9" class="st1" width="15.2" height="16.2"/>
	<rect id="Rectangle_605" x="-9.6" y="-274.9" class="st1" width="15.2" height="16.2"/>
	<rect id="Rectangle_606" x="-60.5" y="-326.2" class="st1" width="73.9" height="9.9"/>
	<rect id="Rectangle_607" x="-53.7" y="-332.9" class="st1" width="60.2" height="10.2"/>
	<rect id="Rectangle_608" x="-46.8" y="-348.4" class="st1" width="9.9" height="22.3"/>
	<rect id="Rectangle_609" x="-10.4" y="-348.4" class="st1" width="9.9" height="22.3"/>
	<g id="Group_589" transform="translate(14.975 34.22)">
		
			<rect id="Rectangle_610" x="-65" y="-359.3" transform="matrix(0.7574 -0.6529 0.6529 0.7574 212.846 -123.9918)" class="st0" width="9" height="21.7"/>
		<rect id="Rectangle_611" x="-68.1" y="-345" class="st0" width="14.2" height="22.5"/>
		<g id="Group_588" transform="translate(15.786 0.015)">
			
				<rect id="Rectangle_612" x="-43.6" y="-352.9" transform="matrix(0.6529 -0.7574 0.7574 0.6529 252.5163 -145.7852)" class="st0" width="21.7" height="9"/>
			<rect id="Rectangle_613" x="-39.3" y="-345" class="st0" width="14.2" height="22.5"/>
		</g>
	</g>
</g>
</svg>
