<svg id="Group_135" data-name="Group 135" xmlns="http://www.w3.org/2000/svg" xmlns:xlink="http://www.w3.org/1999/xlink" width="296.479" height="455.63" viewBox="0 0 296.479 455.63">
  <defs>
    <clipPath id="clip-path">
      <rect id="Rectangle_103" data-name="Rectangle 103" width="296.479" height="455.63" fill="none"/>
    </clipPath>
    <clipPath id="clip-path-3">
      <rect id="Rectangle_77" data-name="Rectangle 77" width="66.616" height="68.697" fill="none"/>
    </clipPath>
    <clipPath id="clip-path-4">
      <rect id="Rectangle_78" data-name="Rectangle 78" width="36.436" height="57.968" fill="none"/>
    </clipPath>
    <clipPath id="clip-path-5">
      <rect id="Rectangle_79" data-name="Rectangle 79" width="16.712" height="8.812" fill="none"/>
    </clipPath>
    <clipPath id="clip-path-6">
      <rect id="Rectangle_80" data-name="Rectangle 80" width="27.257" height="24.838" fill="none"/>
    </clipPath>
    <clipPath id="clip-path-7">
      <rect id="Rectangle_81" data-name="Rectangle 81" width="30.009" height="19.542" fill="none"/>
    </clipPath>
    <clipPath id="clip-path-8">
      <rect id="Rectangle_82" data-name="Rectangle 82" width="41.754" height="13.136" fill="none"/>
    </clipPath>
    <clipPath id="clip-path-9">
      <rect id="Rectangle_83" data-name="Rectangle 83" width="32.488" height="10.051" fill="none"/>
    </clipPath>
    <clipPath id="clip-path-10">
      <rect id="Rectangle_84" data-name="Rectangle 84" width="93.996" height="111.757" fill="none"/>
    </clipPath>
    <clipPath id="clip-path-11">
      <rect id="Rectangle_85" data-name="Rectangle 85" width="138.923" height="196.587" fill="none"/>
    </clipPath>
    <clipPath id="clip-path-12">
      <rect id="Rectangle_86" data-name="Rectangle 86" width="96.658" height="130.634" fill="none"/>
    </clipPath>
    <clipPath id="clip-path-13">
      <rect id="Rectangle_87" data-name="Rectangle 87" width="56.367" height="87.36" fill="none"/>
    </clipPath>
    <clipPath id="clip-path-14">
      <rect id="Rectangle_88" data-name="Rectangle 88" width="29.156" height="69.406" fill="none"/>
    </clipPath>
    <clipPath id="clip-path-15">
      <rect id="Rectangle_89" data-name="Rectangle 89" width="44.978" height="21.414" fill="none"/>
    </clipPath>
    <clipPath id="clip-path-16">
      <rect id="Rectangle_90" data-name="Rectangle 90" width="125.59" height="426.354" fill="none"/>
    </clipPath>
    <clipPath id="clip-path-17">
      <rect id="Rectangle_91" data-name="Rectangle 91" width="37.591" height="43.59" fill="none"/>
    </clipPath>
    <clipPath id="clip-path-18">
      <rect id="Rectangle_92" data-name="Rectangle 92" width="36.029" height="17.832" fill="none"/>
    </clipPath>
    <clipPath id="clip-path-19">
      <rect id="Rectangle_93" data-name="Rectangle 93" width="78.812" height="108.392" fill="none"/>
    </clipPath>
    <clipPath id="clip-path-20">
      <rect id="Rectangle_94" data-name="Rectangle 94" width="49.135" height="50.039" fill="none"/>
    </clipPath>
    <clipPath id="clip-path-21">
      <rect id="Rectangle_95" data-name="Rectangle 95" width="122.338" height="90.663" fill="none"/>
    </clipPath>
    <clipPath id="clip-path-22">
      <rect id="Rectangle_96" data-name="Rectangle 96" width="105.346" height="95.228" fill="none"/>
    </clipPath>
    <clipPath id="clip-path-23">
      <rect id="Rectangle_97" data-name="Rectangle 97" width="12.417" height="14.84" fill="none"/>
    </clipPath>
    <clipPath id="clip-path-24">
      <rect id="Rectangle_98" data-name="Rectangle 98" width="19.062" height="15.839" fill="none"/>
    </clipPath>
    <clipPath id="clip-path-25">
      <rect id="Rectangle_99" data-name="Rectangle 99" width="11.574" height="3.071" fill="none"/>
    </clipPath>
    <clipPath id="clip-path-26">
      <rect id="Rectangle_100" data-name="Rectangle 100" width="88.806" height="74.397" fill="none"/>
    </clipPath>
    <clipPath id="clip-path-27">
      <rect id="Rectangle_101" data-name="Rectangle 101" width="55.933" height="56.176" fill="none"/>
    </clipPath>
  </defs>
  <g id="Group_134" data-name="Group 134" clip-path="url(#clip-path)">
    <g id="Group_133" data-name="Group 133">
      <g id="Group_132" data-name="Group 132" clip-path="url(#clip-path)">
        <path id="Path_208" data-name="Path 208" d="M76.938,55.04C84.691,43,99.35.706,126.952.021s11,15.778,11,15.778,12.637,9.557-.059,20.989c1.418,3.831,2.667,16.135-15.806,28.274S76.938,55.04,76.938,55.04" transform="translate(49.332 0)" fill="#263238"/>
        <g id="Group_59" data-name="Group 59" transform="translate(126.269)" opacity="0.4">
          <g id="Group_58" data-name="Group 58">
            <g id="Group_57" data-name="Group 57" clip-path="url(#clip-path-3)">
              <path id="Path_209" data-name="Path 209" d="M76.938,55.04C84.691,43,99.35.706,126.952.021s11,15.778,11,15.778,12.637,9.557-.059,20.989c1.418,3.831,2.667,16.135-15.806,28.274S76.938,55.04,76.938,55.04" transform="translate(-76.937 0)" fill="#fff"/>
            </g>
          </g>
        </g>
        <g id="Group_62" data-name="Group 62" transform="translate(145.135 10.359)" opacity="0.4">
          <g id="Group_61" data-name="Group 61">
            <g id="Group_60" data-name="Group 60" clip-path="url(#clip-path-4)">
              <path id="Path_210" data-name="Path 210" d="M88.924,55.408c-2.971-16.34,8.025-31.151,19.83-44.324,17.293-19.3,22.289,24.688,6.947,47.532-8.4,12.514-26.013,1-26.778-3.209" transform="translate(-88.433 -6.311)" fill="#fff"/>
            </g>
          </g>
        </g>
        <path id="Path_211" data-name="Path 211" d="M122.22,27.691c-5.037-2.56-12.281-2.795-14.964,3.222a2.749,2.749,0,0,0,3.323,3.752,41.13,41.13,0,0,1,10.512-1.787,2.744,2.744,0,0,0,1.129-5.186" transform="translate(68.614 16.662)" fill="#263238"/>
        <g id="Group_65" data-name="Group 65" transform="translate(175.624 42.648)" opacity="0.7">
          <g id="Group_64" data-name="Group 64">
            <g id="Group_63" data-name="Group 63" clip-path="url(#clip-path-5)">
              <path id="Path_212" data-name="Path 212" d="M122.22,27.691c-5.037-2.56-12.281-2.795-14.964,3.222a2.749,2.749,0,0,0,3.323,3.752,41.13,41.13,0,0,1,10.512-1.787,2.744,2.744,0,0,0,1.129-5.186" transform="translate(-107.01 -25.986)" fill="#fff"/>
            </g>
          </g>
        </g>
        <path id="Path_213" data-name="Path 213" d="M114.5,39.3a5.337,5.337,0,1,0,3.02-6.918A5.337,5.337,0,0,0,114.5,39.3" transform="translate(73.177 20.523)" fill="#263238"/>
        <path id="Path_214" data-name="Path 214" d="M36.729,89.965c-11.5-6.908-22.412,1.126-27.257,22.333C25,114.009,36.729,89.965,36.729,89.965" transform="translate(6.073 56.135)" fill="#407bff"/>
        <g id="Group_68" data-name="Group 68" transform="translate(15.544 143.683)" opacity="0.4">
          <g id="Group_67" data-name="Group 67">
            <g id="Group_66" data-name="Group 66" clip-path="url(#clip-path-6)">
              <path id="Path_215" data-name="Path 215" d="M36.729,89.965c-11.5-6.908-22.412,1.126-27.257,22.333C25,114.009,36.729,89.965,36.729,89.965" transform="translate(-9.471 -87.548)" fill="#fff"/>
            </g>
          </g>
        </g>
        <path id="Path_216" data-name="Path 216" d="M37.6,96.656c3.14-13.044-7.8-21.043-29.479-19.307C11.144,92.679,37.6,96.656,37.6,96.656" transform="translate(5.205 49.444)" fill="#407bff"/>
        <g id="Group_71" data-name="Group 71" transform="translate(13.323 126.559)" opacity="0.4">
          <g id="Group_70" data-name="Group 70">
            <g id="Group_69" data-name="Group 69" clip-path="url(#clip-path-7)">
              <path id="Path_217" data-name="Path 217" d="M37.6,96.656c3.14-13.044-7.8-21.043-29.479-19.307C11.144,92.679,37.6,96.656,37.6,96.656" transform="translate(-8.118 -77.114)" fill="#fff"/>
            </g>
          </g>
        </g>
        <path id="Path_218" data-name="Path 218" d="M41.753,91.835C25.727,80.112,9.1,78.91,0,90.372a51.741,51.741,0,0,0,41.753,1.462" transform="translate(0 52.821)" fill="#407bff"/>
        <g id="Group_74" data-name="Group 74" transform="translate(0 135.203)" opacity="0.6">
          <g id="Group_73" data-name="Group 73">
            <g id="Group_72" data-name="Group 72" clip-path="url(#clip-path-8)">
              <path id="Path_219" data-name="Path 219" d="M41.753,91.835C25.727,80.112,9.1,78.91,0,90.372a51.741,51.741,0,0,0,41.753,1.462" transform="translate(0 -82.381)" fill="#fff"/>
            </g>
          </g>
        </g>
        <path id="Path_220" data-name="Path 220" d="M61.777,113.818c-12.987-8.359-25.95-8.519-32.489.8a40.246,40.246,0,0,0,32.489-.8" transform="translate(18.779 68.984)" fill="#407bff"/>
        <g id="Group_77" data-name="Group 77" transform="translate(48.069 176.572)" opacity="0.6">
          <g id="Group_76" data-name="Group 76">
            <g id="Group_75" data-name="Group 75" clip-path="url(#clip-path-9)">
              <path id="Path_221" data-name="Path 221" d="M61.777,113.818c-12.987-8.359-25.95-8.519-32.489.8a40.246,40.246,0,0,0,32.489-.8" transform="translate(-29.289 -107.588)" fill="#fff"/>
            </g>
          </g>
        </g>
        <path id="Path_222" data-name="Path 222" d="M20.764,86.843s20.791,43.862,67.518,68.689l9.079-13.518c-10.622-6.333-52.259-33.551-64.505-61.2a6.256,6.256,0,0,0-11.048-.729,9.729,9.729,0,0,0-1.044,6.763" transform="translate(13.181 49.43)" fill="#4d62d6"/>
        <path id="Path_223" data-name="Path 223" d="M118.507,105.547c-13.771,32.405-55.3,59.216-80.661,25.758S42.272,71.3,39.137,61.564s4.183-22.476,8.319-10.929c-1.085-8.047,6.086-15.151,9.818-7.848,1.713-6.542,7.289-11.818,10.5-3.742s-6.5,16.069-7.7,31.256,3.913,39.9,3.913,39.9c39.339-16.706,66.987-33.971,54.525-4.649" transform="translate(17.653 22.409)" fill="#263238"/>
        <g id="Group_80" data-name="Group 80" transform="translate(45.184 57.36)" opacity="0.5">
          <g id="Group_79" data-name="Group 79">
            <g id="Group_78" data-name="Group 78" clip-path="url(#clip-path-10)">
              <path id="Path_224" data-name="Path 224" d="M118.507,105.547c-13.771,32.405-55.3,59.216-80.661,25.758S42.272,71.3,39.137,61.564s4.183-22.476,8.319-10.929c-1.085-8.047,6.086-15.151,9.818-7.848,1.713-6.542,7.289-11.818,10.5-3.742s-6.5,16.069-7.7,31.256,3.913,39.9,3.913,39.9c39.339-16.706,66.987-33.971,54.525-4.649" transform="translate(-27.531 -34.95)" fill="#fff"/>
            </g>
          </g>
        </g>
        <path id="Path_225" data-name="Path 225" d="M134.7,72.207c42.633,25.992,21.518,68.049,42.705,103.114,23.64,39.126,4.561,103-85.366,82.194s-14.1-94.368-19.607-132.969S96.618,48.988,134.7,72.207" transform="translate(30.629 41.673)" fill="#263238"/>
        <g id="Group_83" data-name="Group 83" transform="translate(78.397 106.667)" opacity="0.5">
          <g id="Group_82" data-name="Group 82">
            <g id="Group_81" data-name="Group 81" clip-path="url(#clip-path-11)">
              <path id="Path_226" data-name="Path 226" d="M134.7,72.207c42.633,25.992,21.518,68.049,42.705,103.114,23.64,39.126,4.561,103-85.366,82.194s-14.1-94.368-19.607-132.969S96.618,48.988,134.7,72.207" transform="translate(-47.768 -64.994)" fill="#fff"/>
            </g>
          </g>
        </g>
        <g id="Group_86" data-name="Group 86" transform="translate(92.596 128.101)" opacity="0.5">
          <g id="Group_85" data-name="Group 85">
            <g id="Group_84" data-name="Group 84" clip-path="url(#clip-path-12)">
              <path id="Path_227" data-name="Path 227" d="M119.675,80.763c32.451,12.4,12.2,43.511,26.942,67.909,16.448,27.222,3.174,71.662-59.395,57.187S77.413,140.2,73.58,113.346,95.694,71.6,119.675,80.763" transform="translate(-56.42 -78.054)" fill="#fff"/>
            </g>
          </g>
        </g>
        <path id="Path_228" data-name="Path 228" d="M55.119,133.05c-26.477,9.944-39.144,59.482,6.289,83.692a15.7,15.7,0,0,0,21.777-7.556L86.323,202a15.962,15.962,0,0,0-.033-12.636c-13.248-31.27-3.8-66.6-31.171-56.317" transform="translate(20.034 84.145)" fill="#263238"/>
        <g id="Group_89" data-name="Group 89" transform="translate(51.279 215.378)" opacity="0.5">
          <g id="Group_88" data-name="Group 88">
            <g id="Group_87" data-name="Group 87" clip-path="url(#clip-path-13)">
              <path id="Path_229" data-name="Path 229" d="M55.119,133.05c-26.477,9.944-39.144,59.482,6.289,83.692a15.7,15.7,0,0,0,21.777-7.556L86.323,202a15.962,15.962,0,0,0-.033-12.636c-13.248-31.27-3.8-66.6-31.171-56.317" transform="translate(-31.245 -131.233)" fill="#fff"/>
            </g>
          </g>
        </g>
        <path id="Path_230" data-name="Path 230" d="M67.649,149.692C56.09,143.373,49.43,159.665,53,166.064c-4.19,1.536-8.181,8.034-4.011,18.206s-1.433,31.409,23.023,33.4c11.933-20.871-4.362-67.976-4.362-67.976" transform="translate(30.279 95.064)" fill="#263238"/>
        <g id="Group_92" data-name="Group 92" transform="translate(77.504 243.326)" opacity="0.6">
          <g id="Group_91" data-name="Group 91">
            <g id="Group_90" data-name="Group 90" clip-path="url(#clip-path-14)">
              <path id="Path_231" data-name="Path 231" d="M67.649,149.692C56.09,143.373,49.43,159.665,53,166.064c-4.19,1.536-8.181,8.034-4.011,18.206s-1.433,31.409,23.023,33.4c11.933-20.871-4.362-67.976-4.362-67.976" transform="translate(-47.225 -148.262)" fill="#fff"/>
            </g>
          </g>
        </g>
        <path id="Path_232" data-name="Path 232" d="M153.267,153.717c-.75-18.447,16.149-26.32,44.954-18.174-8.185,19.881-44.954,18.174-44.954,18.174" transform="translate(98.258 84.855)" fill="#407bff"/>
        <g id="Group_95" data-name="Group 95" transform="translate(251.501 217.195)" opacity="0.4">
          <g id="Group_94" data-name="Group 94">
            <g id="Group_93" data-name="Group 93" clip-path="url(#clip-path-15)">
              <path id="Path_233" data-name="Path 233" d="M153.267,153.717c-.75-18.447,16.149-26.32,44.954-18.174-8.185,19.881-44.954,18.174-44.954,18.174" transform="translate(-153.243 -132.34)" fill="#fff"/>
            </g>
          </g>
        </g>
        <path id="Path_234" data-name="Path 234" d="M90.432,33.828c-17.009,153.426,60.018,358.693,77.239,402.16a6.2,6.2,0,0,1-5.81,8.3H125.617a5.543,5.543,0,0,1-5.112-3.266C39.921,260.243,41.332,75.54,42.921,32.536A14.488,14.488,0,0,1,53.9,19.169a52.092,52.092,0,0,1,27.4.737,12.835,12.835,0,0,1,9.135,13.922" transform="translate(27.243 11.339)" fill="#4d62d6"/>
        <g id="Group_98" data-name="Group 98" transform="translate(69.728 29.276)" opacity="0.1">
          <g id="Group_97" data-name="Group 97">
            <g id="Group_96" data-name="Group 96" clip-path="url(#clip-path-16)">
              <path id="Path_235" data-name="Path 235" d="M53.656,19.128a50.731,50.731,0,0,1,7.366-1.29,12.078,12.078,0,0,1,3.456,7.206c.714,5.867-2.1,11.693-4.2,17.362-6.689,18.143-6.181,38.491,1.4,55.52,6.007,13.486,16.333,25.338,17.858,40.23,1.434,13.871-5.1,27.874-4.858,41.863.53,29.771,31.071,52.482,27.67,82.266-1.2,10.418-6.58,21.143-3.42,30.925,1.566,4.819,5.052,8.682,7.446,13.115,6.218,11.467,4.819,25.709,7.282,38.663s12.389,26.64,25.64,24.25c1.341-.238,2.664-.65,3.99-.888,10.505,31.691,19.679,55.656,24.386,67.537a6.2,6.2,0,0,1-5.808,8.3H125.619a5.547,5.547,0,0,1-5.114-3.266C39.914,260.14,41.331,75.419,42.918,32.43a14.4,14.4,0,0,1,10.738-13.3" transform="translate(-42.487 -17.838)"/>
            </g>
          </g>
        </g>
        <path id="Path_236" data-name="Path 236" d="M152.96,160.929c3.166-27.139,17.508-45.036,37.59-43.5-10.2,32.546-37.59,43.5-37.59,43.5" transform="translate(98.076 75.236)" fill="#407bff"/>
        <g id="Group_101" data-name="Group 101" transform="translate(251.036 192.575)" opacity="0.6">
          <g id="Group_100" data-name="Group 100">
            <g id="Group_99" data-name="Group 99" clip-path="url(#clip-path-17)">
              <path id="Path_237" data-name="Path 237" d="M152.96,160.929c3.166-27.139,17.508-45.036,37.59-43.5-10.2,32.546-37.59,43.5-37.59,43.5" transform="translate(-152.96 -117.339)" fill="#fff"/>
            </g>
          </g>
        </g>
        <path id="Path_238" data-name="Path 238" d="M140.771,173.891c10.174-15.5,24.316-21.992,36.029-14.953a48.3,48.3,0,0,1-36.029,14.953" transform="translate(90.261 100.094)" fill="#407bff"/>
        <g id="Group_104" data-name="Group 104" transform="translate(231.032 256.201)" opacity="0.6">
          <g id="Group_103" data-name="Group 103">
            <g id="Group_102" data-name="Group 102" clip-path="url(#clip-path-18)">
              <path id="Path_239" data-name="Path 239" d="M140.771,173.891c10.174-15.5,24.316-21.992,36.029-14.953a48.3,48.3,0,0,1-36.029,14.953" transform="translate(-140.771 -156.107)" fill="#fff"/>
            </g>
          </g>
        </g>
        <path id="Path_240" data-name="Path 240" d="M161,135.111c26.587,20.425,15.1,95.542-47.534,103.776a14.291,14.291,0,0,1-16.066-12.5l-1.705-14.615a14.4,14.4,0,0,1,3.5-11.114C125.075,170.892,133.909,114.3,161,135.111" transform="translate(61.297 83.751)" fill="#263238"/>
        <g id="Group_107" data-name="Group 107" transform="translate(156.897 214.37)" opacity="0.5">
          <g id="Group_106" data-name="Group 106">
            <g id="Group_105" data-name="Group 105" clip-path="url(#clip-path-19)">
              <path id="Path_241" data-name="Path 241" d="M161,135.111c26.587,20.425,15.1,95.542-47.534,103.776a14.291,14.291,0,0,1-16.066-12.5l-1.705-14.615a14.4,14.4,0,0,1,3.5-11.114C125.075,170.892,133.909,114.3,161,135.111" transform="translate(-95.6 -130.619)" fill="#fff"/>
            </g>
          </g>
        </g>
        <path id="Path_242" data-name="Path 242" d="M107.231,178.958c-9.949-6.622-22.228-10.712-25.238-2.875s8.019,11.577,8.019,11.577-8.792-1.1-6.41,6.374,13.312,10.321,13.312,10.321-7.628.108,1.759,12.138,16.038-.013,16.038-.013,17.011,3.942,15.841-9.99c-.448-5.345-14.011-21.335-23.32-27.533" transform="translate(52.24 110.155)" fill="#263238"/>
        <g id="Group_110" data-name="Group 110" transform="translate(133.713 281.953)" opacity="0.6">
          <g id="Group_109" data-name="Group 109">
            <g id="Group_108" data-name="Group 108" clip-path="url(#clip-path-20)">
              <path id="Path_243" data-name="Path 243" d="M107.231,178.958c-9.949-6.622-22.228-10.712-25.238-2.875s8.019,11.577,8.019,11.577-8.792-1.1-6.41,6.374,13.312,10.321,13.312,10.321-7.628.108,1.759,12.138,16.038-.013,16.038-.013,17.011,3.942,15.841-9.99c-.448-5.345-14.011-21.335-23.32-27.533" transform="translate(-81.473 -171.798)" fill="#fff"/>
            </g>
          </g>
        </g>
        <path id="Path_244" data-name="Path 244" d="M148.741,79.467c21.189,14.244,43.567,73.519,7.714,85.293-45.044,14.792-72.276-25.315-83.822-24.8s-22.47-8.989-8.618-9.977c-8.992-.916-13.95-8.972-4.777-10.592-6.36-3.058-9.949-9.266-.146-10.236s14.779,9.555,30.556,14.182c7.81,2.291,17.666,2.715,25.629,2.559,7.712-.153,14.147-5.82,14.508-12.911.84-16.546,4.408-43.3,18.957-33.518" transform="translate(33.999 49.611)" fill="#263238"/>
        <g id="Group_113" data-name="Group 113" transform="translate(87.024 126.985)" opacity="0.5">
          <g id="Group_112" data-name="Group 112">
            <g id="Group_111" data-name="Group 111" clip-path="url(#clip-path-21)">
              <path id="Path_245" data-name="Path 245" d="M148.741,79.467c21.189,14.244,43.567,73.519,7.714,85.293-45.044,14.792-72.276-25.315-83.822-24.8s-22.47-8.989-8.618-9.977c-8.992-.916-13.95-8.972-4.777-10.592-6.36-3.058-9.949-9.266-.146-10.236s14.779,9.555,30.556,14.182c7.81,2.291,17.666,2.715,25.629,2.559,7.712-.153,14.147-5.82,14.508-12.911.84-16.546,4.408-43.3,18.957-33.518" transform="translate(-53.025 -77.374)" fill="#fff"/>
            </g>
          </g>
        </g>
        <path id="Path_246" data-name="Path 246" d="M115.545,111.393c18.365-5.216,45.494,2.037,50-24.849s-16.034-50.631-33.692-62.26c-12.79-8.424-43.175-3.558-54.737,7.792s-44.594,102.9,38.428,79.317" transform="translate(39.004 12.843)" fill="#263238"/>
        <g id="Group_116" data-name="Group 116" transform="translate(99.836 32.873)" opacity="0.5">
          <g id="Group_115" data-name="Group 115">
            <g id="Group_114" data-name="Group 114" clip-path="url(#clip-path-22)">
              <path id="Path_247" data-name="Path 247" d="M115.545,111.393c18.365-5.216,45.494,2.037,50-24.849s-16.034-50.631-33.692-62.26c-12.79-8.424-43.175-3.558-54.737,7.792s-44.594,102.9,38.428,79.317" transform="translate(-60.831 -20.03)" fill="#fff"/>
            </g>
          </g>
        </g>
        <path id="Path_248" data-name="Path 248" d="M98.452,30.683c-5.355,1.8-10.6,6.808-8.18,12.937a2.748,2.748,0,0,0,5,.256,41.221,41.221,0,0,1,6.087-8.756,2.744,2.744,0,0,0-2.911-4.438" transform="translate(57.493 19.575)" fill="#263238"/>
        <g id="Group_119" data-name="Group 119" transform="translate(147.161 50.104)" opacity="0.7">
          <g id="Group_118" data-name="Group 118">
            <g id="Group_117" data-name="Group 117" clip-path="url(#clip-path-23)">
              <path id="Path_249" data-name="Path 249" d="M98.452,30.683c-5.355,1.8-10.6,6.808-8.18,12.937a2.748,2.748,0,0,0,5,.256,41.221,41.221,0,0,1,6.087-8.756,2.744,2.744,0,0,0-2.911-4.438" transform="translate(-89.667 -30.529)" fill="#fff"/>
            </g>
          </g>
        </g>
        <path id="Path_250" data-name="Path 250" d="M98.384,44.928a5.337,5.337,0,1,0,3.02-6.918,5.337,5.337,0,0,0-3.02,6.918" transform="translate(62.845 24.135)" fill="#263238"/>
        <path id="Path_251" data-name="Path 251" d="M114.467,60.648c.446,8.175,3.45,12.632,11.423,11.331s8.578-10.248,6.84-15.562c-8.485-.609-18.263,4.231-18.263,4.231" transform="translate(73.395 36.14)" fill="#263238"/>
        <g id="Group_122" data-name="Group 122" transform="translate(187.862 92.502)" opacity="0.7">
          <g id="Group_121" data-name="Group 121">
            <g id="Group_120" data-name="Group 120" clip-path="url(#clip-path-24)">
              <path id="Path_252" data-name="Path 252" d="M114.467,60.648c.446,8.175,3.45,12.632,11.423,11.331s8.578-10.248,6.84-15.562c-8.485-.609-18.263,4.231-18.263,4.231" transform="translate(-114.467 -56.363)" fill="#fff"/>
            </g>
          </g>
        </g>
        <path id="Path_253" data-name="Path 253" d="M131.9,40.656c-4.919-6.269-18.685-.028-20.625,4.943s.817,19.23,4.641,26.576c3.476,6.676,26.766,2.222,25.5-8.89A42.227,42.227,0,0,0,131.9,40.656" transform="translate(70.937 24.378)" fill="#263238"/>
        <g id="Group_125" data-name="Group 125" transform="translate(192.162 94.355)" opacity="0.4">
          <g id="Group_124" data-name="Group 124">
            <g id="Group_123" data-name="Group 123" clip-path="url(#clip-path-25)">
              <path id="Path_254" data-name="Path 254" d="M117.089,59.581c.076.791,2.726,1.183,5.921.878s5.723-1.193,5.647-1.984-2.726-1.183-5.921-.878-5.723,1.193-5.647,1.984" transform="translate(-117.087 -57.491)" fill="#fff"/>
            </g>
          </g>
        </g>
        <path id="Path_255" data-name="Path 255" d="M198.315,148.151s-23.7,74.321-92.793,123.893l-17.36-19.583c15.557-12.366,76.031-64.653,89.6-111.327,2.252-7.725,12.46-9.868,17.439-3.53a15.626,15.626,0,0,1,3.115,10.546" transform="translate(56.528 85.845)" fill="#4457bf"/>
        <path id="Path_256" data-name="Path 256" d="M114.775,33.354c-13.39-6.23-48-39.027-75.6-15.8s-3.363,26.535-3.363,26.535S27.871,65.344,45.857,66.627C46.28,71.981,50.9,86.31,74.932,83.338s39.843-49.984,39.843-49.984" transform="translate(16.651 5.991)" fill="#263238"/>
        <g id="Group_128" data-name="Group 128" transform="translate(42.621 15.334)" opacity="0.4">
          <g id="Group_127" data-name="Group 127">
            <g id="Group_126" data-name="Group 126" clip-path="url(#clip-path-26)">
              <path id="Path_257" data-name="Path 257" d="M114.775,33.354c-13.39-6.23-48-39.027-75.6-15.8s-3.363,26.535-3.363,26.535S27.871,65.344,45.857,66.627C46.28,71.981,50.9,86.31,74.932,83.338s39.843-49.984,39.843-49.984" transform="translate(-25.97 -9.343)" fill="#fff"/>
            </g>
          </g>
        </g>
        <g id="Group_131" data-name="Group 131" transform="translate(66.106 26.697)" opacity="0.4">
          <g id="Group_130" data-name="Group 130">
            <g id="Group_129" data-name="Group 129" clip-path="url(#clip-path-27)">
              <path id="Path_258" data-name="Path 258" d="M95.749,47.894C90.183,29.854,67.918,16.022,48.844,16.27S44.758,63.144,72.328,71.084a35.94,35.94,0,0,0,6.939,1.357c6.845-5.736,12.6-14.339,16.945-22.389a15.235,15.235,0,0,0-.463-2.158" transform="translate(-40.279 -16.267)" fill="#fff"/>
            </g>
          </g>
        </g>
        <path id="Path_259" data-name="Path 259" d="M93.5,23.973c-2.928,6.685-26.108,17.958-20.754,24.408-3.926,2.181-12.222,10.344-6.5,11.805C61.86,63.795,55.278,71.907,62.08,72.894S92.629,38.305,93.5,23.973" transform="translate(37.925 15.371)" fill="#929699"/>
      </g>
    </g>
  </g>
</svg>
